<svg height="436pt" viewBox="0 -106 436.64 436" width="436pt" xmlns="http://www.w3.org/2000/svg"><path d="m298.320312 112.320312c0 44.183594-35.816406 80-80 80-44.183593 0-80-35.816406-80-80 0-44.183593 35.816407-80 80-80 44.183594 0 80 35.816407 80 80zm0 0"/><path d="m106.320312 112.320312c.070313-61.828124 50.171876-111.929687 112-112-101.839843 0-190.0625 82.527344-218.320312 112 28.257812 29.472657 116.480469 112 218.320312 112-61.828124-.070312-111.929687-50.171874-112-112zm0 0"/><path d="m218.320312.320312c61.855469 0 112 50.144532 112 112 0 61.855469-50.144531 112-112 112 101.839844 0 190.0625-82.527343 218.320313-112-28.257813-29.472656-116.480469-112-218.320313-112zm0 0"/></svg>